<svg width="601" height="601" xmlns="http://www.w3.org/2000/svg" xmlns:xlink="http://www.w3.org/1999/xlink" overflow="hidden"><defs><filter id="fx0" x="-10%" y="-10%" width="120%" height="120%" filterUnits="userSpaceOnUse" primitiveUnits="userSpaceOnUse"><feComponentTransfer color-interpolation-filters="sRGB"><feFuncR type="discrete" tableValues="0 0"/><feFuncG type="discrete" tableValues="0 0"/><feFuncB type="discrete" tableValues="0 0"/><feFuncA type="linear" slope="0.4" intercept="0"/></feComponentTransfer><feGaussianBlur stdDeviation="1.77778 1.77778"/></filter><clipPath id="clip1"><rect x="107" y="85" width="601" height="601"/></clipPath><clipPath id="clip2"><rect x="81" y="112" width="448" height="388"/></clipPath><clipPath id="clip3"><rect x="0" y="0" width="603" height="603"/></clipPath><clipPath id="clip4"><rect x="7" y="7" width="589" height="589"/></clipPath><clipPath id="clip5"><rect x="7" y="7" width="590" height="590"/></clipPath><clipPath id="clip6"><rect x="7" y="7" width="590" height="590"/></clipPath><clipPath id="clip7"><rect x="113" y="95" width="589" height="589"/></clipPath><clipPath id="clip8"><rect x="113" y="95" width="590" height="590"/></clipPath><clipPath id="clip9"><rect x="113" y="95" width="590" height="590"/></clipPath></defs><g clip-path="url(#clip1)" transform="translate(-107 -85)"><g clip-path="url(#clip2)" filter="url(#fx0)" transform="translate(106 84)"><g clip-path="url(#clip3)"><g clip-path="url(#clip4)"><g clip-path="url(#clip5)"><g clip-path="url(#clip6)"><path d="M281.411 475.781C280.648 475.672 277.866 475.29 275.139 474.963 243.999 471.145 212.258 458.002 184.881 437.442 176.918 431.497 160.066 414.754 153.576 406.301 131.816 378.105 120.145 351.818 115.237 320.132 113.819 311.025 113.819 284.956 115.291 275.685 118.236 256.433 124.29 237.127 128.544 233.364 130.616 231.564 132.034 231.564 134.543 233.2 136.343 234.346 136.124 236.254 133.343 243.781 130.998 250.107 126.69 264.941 126.417 267.777L126.253 269.14 136.997 270.504C142.887 271.267 147.85 272.031 148.014 272.194 148.232 272.358 143.869 272.958 138.415 273.449 126.417 274.594 125.599 274.758 125.162 275.848 124.999 276.339 124.672 278.248 124.508 280.102L124.181 283.484 129.035 283.865C143.541 284.901 163.502 287.41 162.466 287.956 161.757 288.337 151.777 288.937 131.325 289.919L123.799 290.301 123.472 292.046C123.308 292.973 123.254 294.609 123.363 295.645 123.526 297.336 123.69 297.5 125.435 297.663 132.252 298.154 162.848 301.753 163.775 302.135 164.92 302.571 164.92 302.626 163.611 302.681 162.848 302.681 157.448 303.062 151.613 303.444 145.777 303.88 137.106 304.426 132.361 304.644L123.799 305.026 123.799 309.17 123.799 313.37 142.832 315.442C153.249 316.587 162.684 317.733 163.666 317.951L165.52 318.387 163.338 318.442C157.339 318.605 125.871 320.678 125.49 320.95 124.781 321.387 129.362 343.256 130.289 343.801 130.507 343.965 136.07 344.456 142.614 344.892 162.957 346.365 187.28 348.492 189.843 348.982L192.243 349.473 189.516 349.528C188.044 349.582 179.7 349.964 170.974 350.4 162.302 350.837 151.613 351.219 147.25 351.219 137.924 351.219 133.616 351.655 133.616 352.582 133.616 353.345 136.288 360.108 136.779 360.544 136.997 360.762 144.141 361.199 152.704 361.526 161.266 361.908 173.755 362.562 180.518 362.944 187.28 363.38 193.497 363.762 194.37 363.762 195.243 363.762 195.842 363.926 195.679 364.089 195.243 364.471 179.263 365.616 157.885 366.762 148.613 367.252 140.869 367.798 140.706 367.961 140.596 368.07 141.415 370.034 142.56 372.27L144.632 376.306 178.227 376.306C196.77 376.306 212.858 376.578 214.003 376.851 215.149 377.069 216.348 377.669 216.567 378.051 217.385 379.305 217.112 381.705 215.967 382.85 214.93 383.886 214.167 383.941 192.679 383.941 180.409 383.941 165.847 384.104 160.23 384.322L150.031 384.65 150.849 386.231C153.576 391.521 169.337 410.391 177.409 418.081 204.078 443.441 237.182 459.638 273.776 465.31 284.411 466.946 309.988 467.11 320.678 465.583 352.146 461.111 381.214 448.622 406.192 428.825 416.827 420.426 430.843 405.265 440.605 391.685L445.131 385.304 431.606 384.977C424.135 384.813 410.664 384.595 401.665 384.541L385.25 384.486 384.322 382.905C383.068 380.778 383.123 379.96 384.813 377.996L386.231 376.306 418.135 376.196 450.094 376.033 451.894 372.761C452.93 370.961 453.748 369.325 453.748 369.107 453.748 368.561 449.494 368.18 436.569 367.58 414.263 366.489 395.666 365.289 395.23 364.853 394.957 364.635 397.302 364.307 400.411 364.089 412.682 363.326 435.533 362.18 445.949 361.799L456.966 361.417 458.547 357.763C461.383 351.491 462.256 352.091 449.112 351.655 422.062 350.782 396.811 349.637 397.193 349.255 397.684 348.764 430.134 346.092 449.603 345.001 456.748 344.565 462.801 344.02 463.019 343.747 463.892 342.874 465.637 334.585 465.146 334.039 464.765 333.712 451.567 333.385 428.716 333.221 394.357 332.949 392.721 332.894 391.63 331.912 390.103 330.549 390.158 328.04 391.74 326.459L392.994 325.204 421.299 324.877C436.896 324.714 458.111 324.768 468.473 324.932 485.216 325.259 487.507 325.422 488.815 326.295 490.615 327.44 490.779 329.785 489.252 331.64 488.27 332.84 487.725 332.949 482.162 333.112 478.453 333.221 475.945 333.549 475.672 333.93 474.909 334.857 473.218 343.474 473.654 344.129 473.818 344.401 475.672 344.674 477.69 344.674 481.944 344.674 483.198 345.547 483.198 348.383 483.198 350.782 481.562 351.764 477.417 351.764 471.2 351.764 471.091 351.873 469.346 356.672 468.528 359.017 466.292 364.416 464.383 368.67 462.201 373.579 461.165 376.469 461.547 376.578 461.929 376.687 464.601 376.851 467.546 376.96 472.454 377.124 473.054 377.233 473.981 378.432 475.29 380.014 475.29 381.323 473.981 382.905 473 384.159 472.509 384.213 464.874 384.486L456.802 384.759 451.349 392.994C443.604 404.501 437.714 411.864 429.206 420.644 413.663 436.678 398.229 448.022 378.76 457.566 360.108 466.673 344.02 471.691 323.405 474.799 317.951 475.617 284.956 476.381 281.411 475.781Z" fill="#FF6969" transform="matrix(1 0 0 -1 7 596)"/><path d="M296.409 440.441C286.21 435.642 275.139 430.406 271.813 428.879L265.759 426.043 265.432 405.21C265.214 393.703 264.941 384.213 264.832 384.104 264.668 383.941 260.687 382.577 255.942 380.996L247.325 378.16 246.78 371.07C246.453 367.198 246.017 363.707 245.744 363.271 245.471 362.889 244.435 362.235 243.453 361.799L241.599 361.035 241.599 344.401C241.599 335.239 241.381 327.768 241.163 327.768 240.89 327.768 238 329.622 234.727 331.912 229.001 335.839 228.674 336.003 226.274 335.73 224.911 335.621 215.803 332.84 206.095 329.567L188.425 323.677 188.044 315.224C187.826 310.588 187.389 275.903 187.117 238.218 186.789 200.533 186.299 169.119 186.026 168.41 185.59 167.265 185.535 167.374 185.208 169.337 184.553 173.591 183.79 201.787 183.79 224.693L183.79 247.871 179.318 249.889 174.791 251.907 174.464 244.98C174.246 241.163 174.082 224.038 174.028 206.859L173.973 175.664 175.609 174.409C176.482 173.755 177.245 173.046 177.245 172.773 177.245 172.555 174.791 172.337 171.792 172.337L166.338 172.337 166.338 220.548 166.338 268.704 174.791 272.74 183.244 276.721 183.244 281.575C183.244 285.283 183.081 286.374 182.59 286.156 182.208 285.992 177.082 283.647 171.246 281.029 165.411 278.357 159.957 275.903 159.139 275.521L157.612 274.867 157.612 252.343C157.612 239.908 157.448 218.312 157.23 204.35L156.903 178.881 153.195 178.881C147.959 178.881 147.85 178.936 148.504 182.208 148.777 183.681 148.886 185.044 148.722 185.262 148.504 185.426 146.65 185.317 144.578 184.935 136.07 183.572 125.817 179.372 119.818 174.846L116.655 172.501 101.057 172.119C92.4403 171.901 84.9687 171.464 84.4779 171.246 83.2781 170.537 82.1328 167.701 82.5691 166.174 82.7327 165.465 83.3871 164.211 84.0416 163.393L85.1869 161.92 298.099 162.084 510.957 162.248 512.103 163.393C513.793 165.029 514.121 168.465 512.812 170.101 511.394 171.846 508.34 172.228 495.469 172.283L485.107 172.337 481.289 175.118C475.072 179.645 465.365 183.953 457.348 185.699L455.766 186.026 456.039 182.481C456.366 178.445 456.584 178.609 451.894 179.209L449.385 179.59 449.385 216.185 449.385 252.834 440.005 256.215C434.824 258.069 426.425 261.069 421.299 262.814L412.027 266.032 411.591 274.648C411.373 279.339 411.1 283.374 410.937 283.484 410.773 283.647 406.628 285.174 401.665 286.865L392.667 289.973 392.667 271.758C392.667 253.761 392.667 253.597 393.812 253.597 394.412 253.597 399.975 254.852 406.137 256.324 412.3 257.851 417.481 259.051 417.645 259.051 418.081 259.051 417.317 196.442 416.663 185.699 416.336 180.027 415.954 174.955 415.79 174.519 415.572 173.973 415.19 174.191 414.427 175.446 412.791 178.063 412.355 184.499 412.245 207.786 412.191 219.021 412.027 232.982 411.809 238.763L411.482 249.289 409.246 247.38 407.064 245.526 406.41 230.037C405.646 212.258 403.792 189.625 402.974 188.098 402.429 187.007 400.084 186.68 399.484 187.607 399.32 187.88 398.884 200.478 398.611 215.53 398.284 230.637 397.848 243.29 397.63 243.671 397.302 244.217 396.811 244.053 395.503 242.962 393.539 241.326 393.866 243.126 391.576 220.602 389.613 201.46 389.449 200.424 388.74 201.133 388.086 201.787 387.267 252.67 387.267 294.064L387.213 320.623 383.613 326.459C381.65 329.622 378.76 334.367 377.233 336.93L374.397 341.675 374.07 337.584C373.415 330.058 373.033 177.845 373.633 177.464 373.96 177.3 378.432 176.918 383.559 176.645 391.685 176.264 399.975 175.391 412.3 173.646L415.3 173.21 412.845 172.828C409.791 172.337 343.038 172.228 339.548 172.664 338.184 172.882 337.039 173.21 337.039 173.482 337.039 174.464 354.109 176.7 362.126 176.7 364.362 176.7 366.762 176.864 367.471 177.027L368.67 177.354 368.67 277.266 368.616 377.124 362.508 386.068C359.126 390.976 355.963 395.284 355.472 395.612 354.709 396.048 353.618 395.503 349.637 392.776 346.965 390.921 344.401 389.231 343.911 389.067 343.147 388.74 343.038 390.54 343.038 406.901 343.038 416.936 342.874 427.843 342.656 431.224L342.329 437.332 329.567 443.059C322.587 446.222 316.424 448.894 315.879 449.003 315.388 449.167 306.607 445.295 296.409 440.441ZM309.334 435.096C309.389 434.987 309.552 416.99 309.716 395.012L310.043 355.091 312.77 356.781C337.312 372.161 353.182 381.65 353.673 381.159 354.218 380.614 354.491 181.445 353.945 180.845 353.782 180.681 352.527 180.518 351.219 180.409L348.764 180.245 348.601 275.576C348.546 344.02 348.328 370.852 347.892 370.852 347.565 370.852 346.637 370.416 345.874 369.816 344.183 368.67 323.786 356.999 316.697 353.182 314.079 351.709 311.516 349.964 311.025 349.255 310.316 348.11 310.098 345.165 309.879 329.84L309.607 311.843 305.898 309.389C303.826 308.08 302.081 306.934 302.081 306.88 302.026 306.825 301.808 281.247 301.535 250.052 301.208 207.023 300.935 191.807 300.335 186.898 299.954 183.408 299.463 180.354 299.299 180.19 298.536 179.427 298.263 201.078 298.427 254.688L298.59 312.715 302.026 315.115 305.407 317.46 305.407 373.306C305.407 408.482 305.189 429.261 304.862 429.479 304.589 429.643 303.117 429.152 301.59 428.388L298.863 427.025 298.863 407.228C298.863 396.375 298.699 386.94 298.536 386.286 298.208 385.141 298.099 385.141 296.681 385.85L295.209 386.613 294.936 403.574C294.773 412.9 294.5 420.644 294.336 420.808 294.118 421.026 289.864 419.226 289.155 418.572 289.046 418.463 288.774 388.522 288.501 351.982 287.846 264.995 286.647 204.187 285.392 195.788 285.065 193.388 285.065 193.388 284.629 194.97 283.811 197.806 282.447 220.602 282.066 236.527 281.847 245.907 281.466 252.125 281.138 252.452 280.811 252.779 277.157 253.597 273.012 254.252 264.505 255.561 264.886 255.615 253.27 251.852L246.616 249.725 246.289 228.619C245.853 204.132 245.035 182.645 244.38 180.899 243.944 179.754 243.944 179.754 243.562 180.845 242.908 183.026 242.144 208.004 242.144 230.474L242.144 253.434 245.58 254.633C247.435 255.288 250.38 256.324 252.125 256.979L255.233 258.069 255.233 281.956 255.233 305.844 252.506 307.589C250.979 308.571 249.616 309.879 249.507 310.534 249.343 311.134 249.289 321.332 249.343 333.167L249.507 354.654 261.778 358.145C268.486 360.053 274.758 361.635 275.685 361.744 277.266 361.853 277.321 361.744 277.484 359.508 277.703 356.781 278.139 357.054 267.722 354.109L260.851 352.146 260.523 319.423C260.033 278.848 260.033 262.923 260.469 260.851 260.796 259.269 260.905 259.215 262.596 259.596 264.723 260.087 267.504 259.651 275.303 257.633 278.357 256.815 281.029 256.324 281.247 256.488 281.793 257.088 282.12 332.567 281.684 354.054L281.302 373.47 279.011 372.761C276.285 371.943 256.433 365.944 255.124 365.616 254.252 365.344 254.143 365.725 254.143 368.289L254.143 371.179 264.668 374.56C270.395 376.36 276.557 378.269 278.248 378.76 281.138 379.578 281.411 379.796 281.738 381.541 282.066 383.45 281.793 388.086 281.302 388.631 281.138 388.74 279.448 388.358 277.539 387.813 275.63 387.213 273.94 386.831 273.776 386.995 273.612 387.158 273.503 394.248 273.503 402.756 273.503 415.79 273.612 418.408 274.321 419.063 274.758 419.499 281.138 422.607 288.501 425.934 295.863 429.316 303.335 432.697 305.135 433.569 308.298 435.042 309.116 435.369 309.334 435.096ZM317.351 429.861C317.351 427.025 317.187 425.989 316.86 426.752 316.206 428.334 316.206 434.824 316.86 434.387 317.187 434.224 317.406 432.151 317.351 429.861ZM330.658 409.628C332.021 409.082 332.131 408.864 332.131 405.756 332.131 402.047 332.294 402.102 327.931 403.901 326.186 404.665 326.131 404.774 326.131 407.719 326.131 410.773 326.131 410.773 327.659 410.5 328.477 410.337 329.785 409.955 330.658 409.628ZM330.658 395.993C332.021 395.448 332.131 395.175 332.131 392.612L332.131 389.776 329.949 390.103C326.786 390.54 326.131 391.249 326.131 394.412 326.131 397.139 326.131 397.139 327.659 396.866 328.477 396.702 329.785 396.321 330.658 395.993ZM330.658 382.905C333.167 381.923 332.512 380.559 328.204 377.996L326.131 376.742 326.131 380.396 326.131 384.104 327.659 383.777C328.477 383.613 329.785 383.232 330.658 382.905ZM338.13 355.091 338.13 352.364 333.93 350.073C331.585 348.819 326.731 346.092 323.132 344.074 319.478 342.002 316.151 340.311 315.66 340.311 313.806 340.311 313.642 343.474 315.388 345.11 316.86 346.528 336.493 357.763 337.421 357.763 337.911 357.763 338.13 356.89 338.13 355.091ZM338.021 344.292 337.857 340.584 330.658 336.766C326.677 334.694 322.914 332.512 322.314 332.021 321.169 330.985 320.95 328.913 321.55 324.277 321.878 321.932 322.041 321.769 323.514 321.769 326.677 321.769 327.222 322.477 327.222 326.731L327.222 330.549 330.822 332.185C332.84 333.058 334.639 333.658 334.803 333.439 335.239 333.003 335.021 177.627 334.585 174.682L334.257 172.337 330.713 172.337 327.222 172.337 327.168 185.862C327.113 193.279 326.95 199.878 326.786 200.533L326.404 201.678 322.205 200.369 318.005 199.06 317.733 196.715C317.569 195.461 317.351 189.68 317.187 183.844 317.024 177.573 316.697 173.046 316.315 172.664 314.406 170.755 314.406 171.574 314.406 254.852L314.406 336.221 325.859 342.056C332.185 345.274 337.53 347.892 337.748 347.946 337.966 347.946 338.13 346.31 338.021 344.292ZM277.048 345.274C277.048 343.092 277.048 343.092 273.94 342.22 272.194 341.675 269.849 341.129 268.759 341.02 266.741 340.747 266.686 340.747 266.686 342.384 266.686 344.347 266.686 344.347 271.485 346.037 276.666 347.892 277.048 347.837 277.048 345.274ZM278.139 333.439C278.139 331.803 276.012 330.44 271.867 329.404 269.467 328.804 267.341 328.313 267.122 328.313 266.85 328.313 266.686 329.295 266.686 330.494 266.686 331.694 266.85 332.676 267.122 332.676 267.341 332.73 269.74 333.276 272.413 333.985 277.321 335.294 278.084 335.185 278.139 333.439ZM225.402 315.115C225.892 300.826 225.892 265.214 225.402 255.615 225.02 247.107 225.292 247.107 220.82 255.506L217.93 260.96 217.875 287.519C217.875 302.081 217.712 314.188 217.548 314.351 217.385 314.515 216.73 314.297 216.076 313.806L214.876 312.988 214.876 287.083 214.876 261.232 213.403 261.56C212.531 261.778 211.004 262.214 209.968 262.596L208.059 263.25 207.786 287.574C207.622 300.935 207.35 312.006 207.132 312.225 206.968 312.443 206.423 312.006 205.932 311.297 205.223 310.207 205.059 306.444 204.732 287.737 204.405 269.14 204.187 265.432 203.532 265.214 203.096 265.05 201.623 265.268 200.26 265.704L197.697 266.468 197.37 271.594C196.879 278.466 196.879 310.425 197.315 313.806 197.697 316.533 197.697 316.533 200.969 317.842 205.168 319.587 223.711 326.077 224.474 326.077 224.856 326.131 225.183 322.532 225.402 315.115ZM278.139 321.55C278.139 320.514 277.866 319.478 277.539 319.26 276.939 318.878 267.831 316.315 267.122 316.315 266.413 316.315 266.632 319.478 267.341 319.969 268.377 320.623 276.121 323.296 277.212 323.35 277.921 323.405 278.139 322.968 278.139 321.55ZM278.357 310.425C278.521 310.152 278.466 309.225 278.193 308.407 277.866 306.989 277.375 306.716 273.994 305.844 271.922 305.298 269.413 304.862 268.431 304.862 266.795 304.862 266.632 304.971 266.795 306.389 266.959 307.698 267.395 308.025 271.322 309.334 275.903 310.861 277.866 311.188 278.357 310.425ZM310.261 266.632C310.261 250.87 310.152 223.166 309.934 205.114L309.607 172.283 308.189 172.446C306.825 172.61 306.771 172.773 306.444 176.973 306.225 179.372 305.953 207.95 305.735 240.508L305.407 299.681 307.48 301.208 309.498 302.79 309.825 299.027C310.043 297.009 310.207 282.393 310.261 266.632ZM278.03 296.845C278.139 296.082 277.757 295.373 276.939 294.882 275.303 293.846 267.995 292.1 267.286 292.591 266.959 292.755 266.686 293.627 266.686 294.5 266.686 295.918 266.959 296.136 269.849 296.954 271.54 297.445 273.231 297.936 273.503 298.045 273.83 298.154 274.921 298.208 275.957 298.154 277.484 298.045 277.921 297.772 278.03 296.845ZM403.465 277.539C404.501 277.157 404.665 276.666 404.665 274.049 404.665 271.104 404.61 270.995 403.465 271.376 400.193 272.358 399.211 273.231 399.211 275.085 399.211 278.793 399.538 279.011 403.465 277.539ZM204.841 254.852C205.059 254.143 205.005 253.052 204.732 252.506 204.241 251.525 204.132 251.525 201.242 252.67 198.351 253.815 198.242 253.924 198.079 256.16L197.915 258.451 201.187 257.36C203.805 256.433 204.568 255.942 204.841 254.852ZM218.966 249.725C219.675 247.544 218.912 247.435 213.512 249.071 210.24 250.107 208.877 251.198 208.877 252.834L208.877 254.088 213.785 252.452C217.221 251.252 218.748 250.489 218.966 249.725ZM265.268 244.271C265.432 242.417 265.595 226.438 265.595 208.822L265.595 176.7 270.231 176.7C275.085 176.7 289.537 175.009 294.555 173.864L297.5 173.21 293.955 172.828C288.937 172.337 223.329 172.337 220.057 172.882 218.584 173.101 217.548 173.319 217.766 173.373 228.292 175.064 239.363 176.264 248.362 176.7 254.633 176.973 259.814 177.3 259.869 177.354 260.251 177.791 259.378 242.144 258.996 242.144 257.36 242.144 256.815 237.672 254.961 207.513 254.197 194.915 253.434 184.281 253.325 183.953 253.215 183.572 252.506 183.244 251.743 183.244 250.598 183.244 250.434 183.517 250.107 186.135 249.943 187.662 249.616 201.242 249.452 216.294 249.18 236.8 249.234 243.726 249.725 243.999 250.543 244.544 262.269 247.489 263.741 247.544 264.777 247.598 264.941 247.216 265.268 244.271ZM205.386 241.763C205.605 241.054 205.55 239.963 205.277 239.418 204.787 238.49 204.677 238.49 201.787 239.363L198.787 240.29 198.624 242.799 198.46 245.362 201.787 244.271C204.35 243.344 205.114 242.853 205.386 241.763ZM435.369 243.508 439.569 242.472 439.569 236.309C439.569 232.928 439.405 230.146 439.187 230.146 438.914 230.201 436.678 230.637 434.115 231.128L429.479 232.11 429.316 237.781C429.152 243.835 429.37 245.144 430.461 244.708 430.788 244.599 433.024 244.053 435.369 243.508ZM216.567 239.636C219.621 238.763 221.42 237.291 221.42 235.545 221.42 233.964 220.548 233.855 217.057 234.836 213.403 235.873 212.967 236.2 212.422 238.763 211.985 240.836 212.258 240.89 216.567 239.636ZM203.696 231.292C204.95 230.583 205.332 229.983 205.332 228.728 205.332 227.256 205.223 227.147 203.314 227.201 200.478 227.31 198.515 228.674 198.515 230.637 198.515 231.455 198.678 232.328 198.897 232.546 199.442 233.037 201.678 232.491 203.696 231.292ZM220.984 226.111C221.475 225.402 221.584 222.293 221.148 221.857 220.984 221.693 219.13 222.075 217.057 222.675L213.24 223.82 213.24 226.383 213.24 228.946 216.948 227.801C218.966 227.201 220.766 226.438 220.984 226.111ZM203.205 219.948C205.768 219.13 206.095 218.912 206.423 217.166 206.914 214.44 206.205 214.058 202.769 215.149 199.006 216.403 198.515 216.839 198.515 219.021 198.515 221.202 199.006 221.311 203.205 219.948ZM434.987 219.73C436.733 219.402 438.532 218.748 438.914 218.257 439.35 217.712 439.569 215.421 439.569 211.767 439.569 205.332 440.114 205.768 433.297 206.75L429.206 207.35 429.206 213.84C429.206 221.257 428.77 220.875 434.987 219.73ZM219.621 215.149C220.984 214.549 221.42 214.003 221.748 212.422 221.911 211.331 221.966 210.295 221.748 210.131 221.311 209.695 217.166 210.895 215.585 211.931 214.658 212.531 214.331 213.24 214.331 214.658 214.331 216.567 214.385 216.567 216.13 216.239 217.057 216.021 218.639 215.53 219.621 215.149ZM202.332 207.841C203.369 207.513 205.277 207.023 206.586 206.695 208.768 206.15 208.877 206.041 208.877 203.969 208.877 202.769 208.604 201.787 208.331 201.787 208.004 201.787 205.659 202.332 203.15 202.932L198.515 204.078 198.515 206.205C198.515 208.55 198.897 208.713 202.332 207.841ZM220.111 203.15C221.802 202.441 222.02 202.169 221.857 200.587 221.693 198.897 221.584 198.787 219.784 198.951 217.494 199.115 216.785 199.824 216.348 202.223 216.021 203.696 216.13 203.969 217.112 203.969 217.712 203.969 219.075 203.587 220.111 203.15Z" fill="#FF6969" transform="matrix(1 0 0 -1 7 596)"/><path d="M323.296 314.57C321.878 314.079 321.769 313.806 321.769 310.916L321.769 307.753 323.841 308.134C326.95 308.68 327.222 309.007 327.222 312.279 327.222 315.006 327.113 315.224 326.022 315.17 325.313 315.17 324.114 314.897 323.296 314.57Z" fill="#FF6969" transform="matrix(1 0 0 -1 7 596)"/><path d="M323.95 302.681C321.223 301.644 320.841 300.608 321.496 296.3 321.823 294.118 321.932 293.955 323.568 293.955 324.55 293.955 325.641 294.173 326.022 294.445 326.84 294.936 327.604 302.899 326.895 303.335 326.622 303.499 325.313 303.226 323.95 302.681Z" fill="#FF6969" transform="matrix(1 0 0 -1 7 596)"/><path d="M322.75 287.028C321.932 286.81 321.769 286.156 321.769 283.593 321.769 281.847 321.987 280.266 322.259 280.102 322.532 279.884 323.677 280.102 324.877 280.429 326.95 281.138 326.95 281.193 327.113 284.302L327.277 287.41 325.477 287.356C324.495 287.301 323.241 287.192 322.75 287.028Z" fill="#FF6969" transform="matrix(1 0 0 -1 7 596)"/><path d="M323.077 275.576C321.823 275.357 321.223 273.558 321.223 270.122L321.223 268.268 323.841 268.649C325.259 268.813 326.459 269.031 326.513 269.14 326.622 269.195 326.84 270.722 327.004 272.576L327.386 275.957 325.804 275.903C324.932 275.848 323.677 275.685 323.077 275.576Z" fill="#FF6969" transform="matrix(1 0 0 -1 7 596)"/><path d="M321.55 261.669C321.387 260.96 321.223 259.269 321.223 257.851L321.223 255.233 323.895 255.233C326.404 255.233 326.568 255.288 326.895 256.924 327.059 257.851 327.222 259.596 327.222 260.742L327.222 262.868 324.55 262.868C322.259 262.868 321.878 262.705 321.55 261.669Z" fill="#FF6969" transform="matrix(1 0 0 -1 7 596)"/><path d="M323.023 249.398C321.878 249.18 321.769 248.852 321.769 245.089L321.769 241.054 324.168 241.054 326.622 241.054 326.95 243.944C327.659 249.343 327.004 250.216 323.023 249.398Z" fill="#FF6969" transform="matrix(1 0 0 -1 7 596)"/><path d="M323.568 232.71 321.223 232.164 321.223 229.001 321.223 225.783 323.023 225.783C326.95 225.783 327.277 226.111 327.113 229.765 327.004 231.564 326.731 233.091 326.404 233.146 326.131 233.255 324.823 233.037 323.568 232.71Z" fill="#FF6969" transform="matrix(1 0 0 -1 7 596)"/><path d="M323.296 218.857 321.223 218.639 321.223 214.821 321.223 211.058 323.895 211.058 326.622 211.058 326.95 214.003C327.604 219.021 327.386 219.293 323.296 218.857Z" fill="#FF6969" transform="matrix(1 0 0 -1 7 596)"/><path d="M228.51 434.715C228.51 432.37 226.983 428.607 225.402 426.916 224.093 425.552 221.584 424.462 217.33 423.48 215.476 423.044 215.585 422.989 219.948 422.117 222.075 421.68 223.711 420.971 224.965 419.881 226.765 418.299 228.51 414.372 228.51 411.918 228.51 411.209 228.783 410.664 229.056 410.664 229.383 410.664 229.601 411.209 229.601 411.918 229.601 414.536 230.91 417.536 232.819 419.444 234.4 421.08 235.545 421.626 238.218 422.171 240.072 422.553 241.599 423.044 241.599 423.207 241.599 423.426 240.29 423.862 238.709 424.244 237.127 424.571 235.055 425.334 234.073 425.934 232.055 427.134 230.201 430.734 229.765 434.224 229.437 436.624 228.51 437.005 228.51 434.715Z" fill="#FF6969" transform="matrix(1 0 0 -1 7 596)"/><path d="M250.434 432.915C249.289 431.77 249.671 430.352 251.198 429.97 252.888 429.534 253.761 430.297 253.488 431.988 253.325 433.46 251.525 434.006 250.434 432.915Z" fill="#FF6969" transform="matrix(1 0 0 -1 7 596)"/><path d="M367.416 431.933C367.252 431.497 366.816 429.752 366.434 428.116 365.562 424.189 363.38 421.953 359.072 420.699L355.854 419.717 358.145 419.335C362.726 418.517 364.58 416.936 366.598 412.3L367.961 409.3 368.289 411.646C368.834 414.809 372.052 417.972 375.76 418.899 378.705 419.662 378.869 420.208 376.196 420.699 373.851 421.135 371.125 422.826 370.034 424.462 369.543 425.225 368.834 427.352 368.452 429.261 368.016 431.17 367.58 432.37 367.416 431.933Z" fill="#FF6969" transform="matrix(1 0 0 -1 7 596)"/><path d="M196.17 412.245C195.624 410.118 193.661 407.882 191.48 406.955 189.571 406.137 189.571 406.083 190.88 405.81 192.788 405.374 193.77 404.665 195.243 402.647L196.551 400.847 197.26 402.429C197.969 403.847 199.769 405.101 202.605 406.083 203.587 406.41 203.532 406.465 202.114 406.901 199.987 407.501 197.479 409.955 196.988 412.027L196.551 413.663 196.17 412.245Z" fill="#FF6969" transform="matrix(1 0 0 -1 7 596)"/><path d="M404.992 412.573C404.501 411.209 405.265 410.118 406.628 410.118 408.21 410.118 408.864 411.427 407.937 412.573 407.064 413.609 405.428 413.609 404.992 412.573Z" fill="#FF6969" transform="matrix(1 0 0 -1 7 596)"/><path d="M250.052 409.082C249.671 407.228 247.98 405.537 245.471 404.501L243.617 403.683 246.126 402.592C247.98 401.774 248.907 400.902 249.616 399.538 250.598 397.411 251.416 396.975 251.416 398.557 251.416 400.193 252.997 401.883 255.233 402.538 257.36 403.192 258.178 404.119 256.651 404.119 255.397 404.119 252.397 406.901 251.634 408.864 250.707 411.046 250.489 411.1 250.052 409.082Z" fill="#FF6969" transform="matrix(1 0 0 -1 7 596)"/><path d="M383.886 406.519C383.395 405.919 383.341 405.428 383.777 404.774 385.141 402.538 388.467 404.01 387.213 406.246 386.504 407.61 384.922 407.719 383.886 406.519Z" fill="#FF6969" transform="matrix(1 0 0 -1 7 596)"/><path d="M215.749 397.684C215.203 396.048 215.967 394.848 217.385 394.848 219.893 394.848 219.675 398.175 217.166 398.557 216.457 398.666 215.967 398.339 215.749 397.684Z" fill="#FF6969" transform="matrix(1 0 0 -1 7 596)"/><path d="M160.175 337.748C159.521 337.093 159.794 335.021 160.612 334.312 161.866 333.276 164.156 334.476 164.156 336.166 164.156 336.875 163.775 337.639 163.284 337.802 162.139 338.239 160.612 338.239 160.175 337.748Z" fill="#FF6969" transform="matrix(1 0 0 -1 7 596)"/><path d="M469.946 317.733 468.637 316.315 447.313 316.315 426.043 316.315 424.353 314.897C422.226 313.097 422.117 310.861 424.08 308.298L425.443 306.498 450.421 306.498 475.345 306.498 477.035 308.134C478.944 309.988 479.49 311.843 478.781 314.351 478.126 316.806 476.054 318.551 473.491 318.878 471.582 319.151 471.091 318.987 469.946 317.733Z" fill="#FF6969" transform="matrix(1 0 0 -1 7 596)"/><path d="M419.281 296.3C417.481 294.173 417.154 292.973 417.917 291.119 419.444 287.465 417.154 287.683 455.384 287.519L490.124 287.356 491.597 289.046C493.342 291.173 493.451 293.791 491.87 295.809L490.779 297.227 455.439 297.227C422.444 297.227 420.044 297.172 419.281 296.3Z" fill="#FF6969" transform="matrix(1 0 0 -1 7 596)"/><path d="M470.164 280.211C468.364 279.066 467.546 279.011 452.712 278.63 444.15 278.412 437.06 278.193 437.005 278.193 435.151 277.266 434.551 272.849 436.133 271.54 436.787 270.94 440.332 270.722 451.621 270.504 459.638 270.34 466.346 270.067 466.564 269.849 466.783 269.631 466.673 268.268 466.292 266.741 464.819 260.578 465.637 257.469 469.182 255.342 471.2 254.088 472.236 254.852 473.491 258.56 475.127 263.196 477.744 274.376 477.744 276.557 477.744 280.375 473.545 282.447 470.164 280.211Z" fill="#FF6969" transform="matrix(1 0 0 -1 7 596)"/><path d="M135.197 216.512C130.125 215.639 125.599 212.258 123.69 207.895 122.272 204.732 122.327 199.606 123.745 195.515 124.399 193.77 124.781 192.189 124.617 192.079 124.508 191.97 123.417 192.243 122.163 192.734 119.272 193.879 114.855 193.879 112.837 192.679 110.928 191.534 109.074 187.935 109.074 185.371 109.074 183.081 110.928 178.881 111.91 178.881 112.292 178.881 114.091 180.027 115.837 181.336 120.091 184.553 128.489 188.807 133.561 190.334 135.743 191.043 140.051 191.97 143.105 192.516 148.123 193.334 148.613 193.552 148.559 194.588 148.395 200.642 148.341 200.805 146.759 202.387 145.559 203.532 144.632 203.969 143.214 203.969L141.251 203.969 141.251 210.513 141.251 217.057 139.506 217.003C138.524 216.948 136.561 216.73 135.197 216.512Z" fill="#FF6969" transform="matrix(1 0 0 -1 7 596)"/><path d="M462.801 216.676C462.638 216.512 462.474 214.167 462.474 211.549 462.474 205.986 461.874 203.969 460.293 203.969 459.693 203.969 458.711 203.478 458.111 202.878 457.129 201.896 457.02 201.187 457.129 197.533L457.293 193.388 459.475 192.897C468.855 190.88 477.035 187.28 484.18 182.154 486.689 180.354 488.815 178.881 488.979 178.881 489.579 178.881 491.379 183.626 491.379 185.262 491.433 192.352 485.107 195.624 477.854 192.243 476.217 191.48 474.854 190.88 474.745 190.88 474.69 190.88 475.454 193.007 476.436 195.679 478.562 201.242 478.672 203.369 477.145 207.459 475.345 212.313 471.364 215.258 464.601 216.73 463.837 216.894 463.019 216.894 462.801 216.676Z" fill="#FF6969" transform="matrix(1 0 0 -1 7 596)"/><path d="M101.275 151.231C99.6937 149.431 99.5846 147.414 101.003 145.996 102.257 144.741 102.475 144.687 116.709 144.36 124.672 144.141 212.694 143.978 312.334 143.978L493.451 143.978 494.869 145.668C496.614 147.741 496.669 149.431 495.033 150.959L493.778 152.158 297.936 152.158C112.183 152.158 102.093 152.104 101.275 151.231Z" fill="#FF6969" transform="matrix(1 0 0 -1 7 596)"/><path d="M150.413 134.325C148.613 134.052 146.705 131.816 146.705 129.907 146.705 129.198 147.195 127.726 147.85 126.744L148.995 124.89 296.409 124.89 443.822 124.89 445.24 126.58C446.931 128.544 447.04 130.834 445.622 132.58 444.695 133.725 443.986 133.888 438.151 134.216 431.442 134.652 153.085 134.706 150.413 134.325Z" fill="#FF6969" transform="matrix(1 0 0 -1 7 596)"/><path d="M217.494 114.201C214.658 112.674 213.949 109.074 216.13 106.674 217.93 104.657 219.73 104.438 221.911 105.911 225.183 108.092 225.402 111.746 222.402 113.601 220.384 114.91 219.075 115.073 217.494 114.201Z" fill="#FF6969" transform="matrix(1 0 0 -1 7 596)"/><path d="M254.47 112.837C252.616 110.656 252.67 108.529 254.524 106.293L255.997 104.548 311.57 104.82 367.198 105.038 368.725 106.784C370.688 108.965 370.743 110.656 368.889 112.837L367.471 114.528 311.679 114.528 255.888 114.528 254.47 112.837Z" fill="#FF6969" transform="matrix(1 0 0 -1 7 596)"/></g></g></g></g></g><g clip-path="url(#clip7)"><g clip-path="url(#clip8)"><g clip-path="url(#clip9)"><path d="M281.411 475.781C280.648 475.672 277.866 475.29 275.139 474.963 243.999 471.145 212.258 458.002 184.881 437.442 176.918 431.497 160.066 414.754 153.576 406.301 131.816 378.105 120.145 351.818 115.237 320.132 113.819 311.025 113.819 284.956 115.291 275.685 118.236 256.433 124.29 237.127 128.544 233.364 130.616 231.564 132.034 231.564 134.543 233.2 136.343 234.346 136.124 236.254 133.343 243.781 130.998 250.107 126.69 264.941 126.417 267.777L126.253 269.14 136.997 270.504C142.887 271.267 147.85 272.031 148.014 272.194 148.232 272.358 143.869 272.958 138.415 273.449 126.417 274.594 125.599 274.758 125.162 275.848 124.999 276.339 124.672 278.248 124.508 280.102L124.181 283.484 129.035 283.865C143.541 284.901 163.502 287.41 162.466 287.956 161.757 288.337 151.777 288.937 131.325 289.919L123.799 290.301 123.472 292.046C123.308 292.973 123.254 294.609 123.363 295.645 123.526 297.336 123.69 297.5 125.435 297.663 132.252 298.154 162.848 301.753 163.775 302.135 164.92 302.571 164.92 302.626 163.611 302.681 162.848 302.681 157.448 303.062 151.613 303.444 145.777 303.88 137.106 304.426 132.361 304.644L123.799 305.026 123.799 309.17 123.799 313.37 142.832 315.442C153.249 316.587 162.684 317.733 163.666 317.951L165.52 318.387 163.338 318.442C157.339 318.605 125.871 320.678 125.49 320.95 124.781 321.387 129.362 343.256 130.289 343.801 130.507 343.965 136.07 344.456 142.614 344.892 162.957 346.365 187.28 348.492 189.843 348.982L192.243 349.473 189.516 349.528C188.044 349.582 179.7 349.964 170.974 350.4 162.302 350.837 151.613 351.219 147.25 351.219 137.924 351.219 133.616 351.655 133.616 352.582 133.616 353.345 136.288 360.108 136.779 360.544 136.997 360.762 144.141 361.199 152.704 361.526 161.266 361.908 173.755 362.562 180.518 362.944 187.28 363.38 193.497 363.762 194.37 363.762 195.243 363.762 195.842 363.926 195.679 364.089 195.243 364.471 179.263 365.616 157.885 366.762 148.613 367.252 140.869 367.798 140.706 367.961 140.596 368.07 141.415 370.034 142.56 372.27L144.632 376.306 178.227 376.306C196.77 376.306 212.858 376.578 214.003 376.851 215.149 377.069 216.348 377.669 216.567 378.051 217.385 379.305 217.112 381.705 215.967 382.85 214.93 383.886 214.167 383.941 192.679 383.941 180.409 383.941 165.847 384.104 160.23 384.322L150.031 384.65 150.849 386.231C153.576 391.521 169.337 410.391 177.409 418.081 204.078 443.441 237.182 459.638 273.776 465.31 284.411 466.946 309.988 467.11 320.678 465.583 352.146 461.111 381.214 448.622 406.192 428.825 416.827 420.426 430.843 405.265 440.605 391.685L445.131 385.304 431.606 384.977C424.135 384.813 410.664 384.595 401.665 384.541L385.25 384.486 384.322 382.905C383.068 380.778 383.123 379.96 384.813 377.996L386.231 376.306 418.135 376.196 450.094 376.033 451.894 372.761C452.93 370.961 453.748 369.325 453.748 369.107 453.748 368.561 449.494 368.18 436.569 367.58 414.263 366.489 395.666 365.289 395.23 364.853 394.957 364.635 397.302 364.307 400.411 364.089 412.682 363.326 435.533 362.18 445.949 361.799L456.966 361.417 458.547 357.763C461.383 351.491 462.256 352.091 449.112 351.655 422.062 350.782 396.811 349.637 397.193 349.255 397.684 348.764 430.134 346.092 449.603 345.001 456.748 344.565 462.801 344.02 463.019 343.747 463.892 342.874 465.637 334.585 465.146 334.039 464.765 333.712 451.567 333.385 428.716 333.221 394.357 332.949 392.721 332.894 391.63 331.912 390.103 330.549 390.158 328.04 391.74 326.459L392.994 325.204 421.299 324.877C436.896 324.714 458.111 324.768 468.473 324.932 485.216 325.259 487.507 325.422 488.815 326.295 490.615 327.44 490.779 329.785 489.252 331.64 488.27 332.84 487.725 332.949 482.162 333.112 478.453 333.221 475.945 333.549 475.672 333.93 474.909 334.857 473.218 343.474 473.654 344.129 473.818 344.401 475.672 344.674 477.69 344.674 481.944 344.674 483.198 345.547 483.198 348.383 483.198 350.782 481.562 351.764 477.417 351.764 471.2 351.764 471.091 351.873 469.346 356.672 468.528 359.017 466.292 364.416 464.383 368.67 462.201 373.579 461.165 376.469 461.547 376.578 461.929 376.687 464.601 376.851 467.546 376.96 472.454 377.124 473.054 377.233 473.981 378.432 475.29 380.014 475.29 381.323 473.981 382.905 473 384.159 472.509 384.213 464.874 384.486L456.802 384.759 451.349 392.994C443.604 404.501 437.714 411.864 429.206 420.644 413.663 436.678 398.229 448.022 378.76 457.566 360.108 466.673 344.02 471.691 323.405 474.799 317.951 475.617 284.956 476.381 281.411 475.781Z" fill="#FF6969" transform="matrix(1 0 0 -1 113 684)"/><path d="M296.409 440.441C286.21 435.642 275.139 430.406 271.813 428.879L265.759 426.043 265.432 405.21C265.214 393.703 264.941 384.213 264.832 384.104 264.668 383.941 260.687 382.577 255.942 380.996L247.325 378.16 246.78 371.07C246.453 367.198 246.017 363.707 245.744 363.271 245.471 362.889 244.435 362.235 243.453 361.799L241.599 361.035 241.599 344.401C241.599 335.239 241.381 327.768 241.163 327.768 240.89 327.768 238 329.622 234.727 331.912 229.001 335.839 228.674 336.003 226.274 335.73 224.911 335.621 215.803 332.84 206.095 329.567L188.425 323.677 188.044 315.224C187.826 310.588 187.389 275.903 187.117 238.218 186.789 200.533 186.299 169.119 186.026 168.41 185.59 167.265 185.535 167.374 185.208 169.337 184.553 173.591 183.79 201.787 183.79 224.693L183.79 247.871 179.318 249.889 174.791 251.907 174.464 244.98C174.246 241.163 174.082 224.038 174.028 206.859L173.973 175.664 175.609 174.409C176.482 173.755 177.245 173.046 177.245 172.773 177.245 172.555 174.791 172.337 171.792 172.337L166.338 172.337 166.338 220.548 166.338 268.704 174.791 272.74 183.244 276.721 183.244 281.575C183.244 285.283 183.081 286.374 182.59 286.156 182.208 285.992 177.082 283.647 171.246 281.029 165.411 278.357 159.957 275.903 159.139 275.521L157.612 274.867 157.612 252.343C157.612 239.908 157.448 218.312 157.23 204.35L156.903 178.881 153.195 178.881C147.959 178.881 147.85 178.936 148.504 182.208 148.777 183.681 148.886 185.044 148.722 185.262 148.504 185.426 146.65 185.317 144.578 184.935 136.07 183.572 125.817 179.372 119.818 174.846L116.655 172.501 101.057 172.119C92.4403 171.901 84.9687 171.464 84.4779 171.246 83.2781 170.537 82.1328 167.701 82.5691 166.174 82.7327 165.465 83.3871 164.211 84.0416 163.393L85.1869 161.92 298.099 162.084 510.957 162.248 512.103 163.393C513.793 165.029 514.121 168.465 512.812 170.101 511.394 171.846 508.34 172.228 495.469 172.283L485.107 172.337 481.289 175.118C475.072 179.645 465.365 183.953 457.348 185.699L455.766 186.026 456.039 182.481C456.366 178.445 456.584 178.609 451.894 179.209L449.385 179.59 449.385 216.185 449.385 252.834 440.005 256.215C434.824 258.069 426.425 261.069 421.299 262.814L412.027 266.032 411.591 274.648C411.373 279.339 411.1 283.374 410.937 283.484 410.773 283.647 406.628 285.174 401.665 286.865L392.667 289.973 392.667 271.758C392.667 253.761 392.667 253.597 393.812 253.597 394.412 253.597 399.975 254.852 406.137 256.324 412.3 257.851 417.481 259.051 417.645 259.051 418.081 259.051 417.317 196.442 416.663 185.699 416.336 180.027 415.954 174.955 415.79 174.519 415.572 173.973 415.19 174.191 414.427 175.446 412.791 178.063 412.355 184.499 412.245 207.786 412.191 219.021 412.027 232.982 411.809 238.763L411.482 249.289 409.246 247.38 407.064 245.526 406.41 230.037C405.646 212.258 403.792 189.625 402.974 188.098 402.429 187.007 400.084 186.68 399.484 187.607 399.32 187.88 398.884 200.478 398.611 215.53 398.284 230.637 397.848 243.29 397.63 243.671 397.302 244.217 396.811 244.053 395.503 242.962 393.539 241.326 393.866 243.126 391.576 220.602 389.613 201.46 389.449 200.424 388.74 201.133 388.086 201.787 387.267 252.67 387.267 294.064L387.213 320.623 383.613 326.459C381.65 329.622 378.76 334.367 377.233 336.93L374.397 341.675 374.07 337.584C373.415 330.058 373.033 177.845 373.633 177.464 373.96 177.3 378.432 176.918 383.559 176.645 391.685 176.264 399.975 175.391 412.3 173.646L415.3 173.21 412.845 172.828C409.791 172.337 343.038 172.228 339.548 172.664 338.184 172.882 337.039 173.21 337.039 173.482 337.039 174.464 354.109 176.7 362.126 176.7 364.362 176.7 366.762 176.864 367.471 177.027L368.67 177.354 368.67 277.266 368.616 377.124 362.508 386.068C359.126 390.976 355.963 395.284 355.472 395.612 354.709 396.048 353.618 395.503 349.637 392.776 346.965 390.921 344.401 389.231 343.911 389.067 343.147 388.74 343.038 390.54 343.038 406.901 343.038 416.936 342.874 427.843 342.656 431.224L342.329 437.332 329.567 443.059C322.587 446.222 316.424 448.894 315.879 449.003 315.388 449.167 306.607 445.295 296.409 440.441ZM309.334 435.096C309.389 434.987 309.552 416.99 309.716 395.012L310.043 355.091 312.77 356.781C337.312 372.161 353.182 381.65 353.673 381.159 354.218 380.614 354.491 181.445 353.945 180.845 353.782 180.681 352.527 180.518 351.219 180.409L348.764 180.245 348.601 275.576C348.546 344.02 348.328 370.852 347.892 370.852 347.565 370.852 346.637 370.416 345.874 369.816 344.183 368.67 323.786 356.999 316.697 353.182 314.079 351.709 311.516 349.964 311.025 349.255 310.316 348.11 310.098 345.165 309.879 329.84L309.607 311.843 305.898 309.389C303.826 308.08 302.081 306.934 302.081 306.88 302.026 306.825 301.808 281.247 301.535 250.052 301.208 207.023 300.935 191.807 300.335 186.898 299.954 183.408 299.463 180.354 299.299 180.19 298.536 179.427 298.263 201.078 298.427 254.688L298.59 312.715 302.026 315.115 305.407 317.46 305.407 373.306C305.407 408.482 305.189 429.261 304.862 429.479 304.589 429.643 303.117 429.152 301.59 428.388L298.863 427.025 298.863 407.228C298.863 396.375 298.699 386.94 298.536 386.286 298.208 385.141 298.099 385.141 296.681 385.85L295.209 386.613 294.936 403.574C294.773 412.9 294.5 420.644 294.336 420.808 294.118 421.026 289.864 419.226 289.155 418.572 289.046 418.463 288.774 388.522 288.501 351.982 287.846 264.995 286.647 204.187 285.392 195.788 285.065 193.388 285.065 193.388 284.629 194.97 283.811 197.806 282.447 220.602 282.066 236.527 281.847 245.907 281.466 252.125 281.138 252.452 280.811 252.779 277.157 253.597 273.012 254.252 264.505 255.561 264.886 255.615 253.27 251.852L246.616 249.725 246.289 228.619C245.853 204.132 245.035 182.645 244.38 180.899 243.944 179.754 243.944 179.754 243.562 180.845 242.908 183.026 242.144 208.004 242.144 230.474L242.144 253.434 245.58 254.633C247.435 255.288 250.38 256.324 252.125 256.979L255.233 258.069 255.233 281.956 255.233 305.844 252.506 307.589C250.979 308.571 249.616 309.879 249.507 310.534 249.343 311.134 249.289 321.332 249.343 333.167L249.507 354.654 261.778 358.145C268.486 360.053 274.758 361.635 275.685 361.744 277.266 361.853 277.321 361.744 277.484 359.508 277.703 356.781 278.139 357.054 267.722 354.109L260.851 352.146 260.523 319.423C260.033 278.848 260.033 262.923 260.469 260.851 260.796 259.269 260.905 259.215 262.596 259.596 264.723 260.087 267.504 259.651 275.303 257.633 278.357 256.815 281.029 256.324 281.247 256.488 281.793 257.088 282.12 332.567 281.684 354.054L281.302 373.47 279.011 372.761C276.285 371.943 256.433 365.944 255.124 365.616 254.252 365.344 254.143 365.725 254.143 368.289L254.143 371.179 264.668 374.56C270.395 376.36 276.557 378.269 278.248 378.76 281.138 379.578 281.411 379.796 281.738 381.541 282.066 383.45 281.793 388.086 281.302 388.631 281.138 388.74 279.448 388.358 277.539 387.813 275.63 387.213 273.94 386.831 273.776 386.995 273.612 387.158 273.503 394.248 273.503 402.756 273.503 415.79 273.612 418.408 274.321 419.063 274.758 419.499 281.138 422.607 288.501 425.934 295.863 429.316 303.335 432.697 305.135 433.569 308.298 435.042 309.116 435.369 309.334 435.096ZM317.351 429.861C317.351 427.025 317.187 425.989 316.86 426.752 316.206 428.334 316.206 434.824 316.86 434.387 317.187 434.224 317.406 432.151 317.351 429.861ZM330.658 409.628C332.021 409.082 332.131 408.864 332.131 405.756 332.131 402.047 332.294 402.102 327.931 403.901 326.186 404.665 326.131 404.774 326.131 407.719 326.131 410.773 326.131 410.773 327.659 410.5 328.477 410.337 329.785 409.955 330.658 409.628ZM330.658 395.993C332.021 395.448 332.131 395.175 332.131 392.612L332.131 389.776 329.949 390.103C326.786 390.54 326.131 391.249 326.131 394.412 326.131 397.139 326.131 397.139 327.659 396.866 328.477 396.702 329.785 396.321 330.658 395.993ZM330.658 382.905C333.167 381.923 332.512 380.559 328.204 377.996L326.131 376.742 326.131 380.396 326.131 384.104 327.659 383.777C328.477 383.613 329.785 383.232 330.658 382.905ZM338.13 355.091 338.13 352.364 333.93 350.073C331.585 348.819 326.731 346.092 323.132 344.074 319.478 342.002 316.151 340.311 315.66 340.311 313.806 340.311 313.642 343.474 315.388 345.11 316.86 346.528 336.493 357.763 337.421 357.763 337.911 357.763 338.13 356.89 338.13 355.091ZM338.021 344.292 337.857 340.584 330.658 336.766C326.677 334.694 322.914 332.512 322.314 332.021 321.169 330.985 320.95 328.913 321.55 324.277 321.878 321.932 322.041 321.769 323.514 321.769 326.677 321.769 327.222 322.477 327.222 326.731L327.222 330.549 330.822 332.185C332.84 333.058 334.639 333.658 334.803 333.439 335.239 333.003 335.021 177.627 334.585 174.682L334.257 172.337 330.713 172.337 327.222 172.337 327.168 185.862C327.113 193.279 326.95 199.878 326.786 200.533L326.404 201.678 322.205 200.369 318.005 199.06 317.733 196.715C317.569 195.461 317.351 189.68 317.187 183.844 317.024 177.573 316.697 173.046 316.315 172.664 314.406 170.755 314.406 171.574 314.406 254.852L314.406 336.221 325.859 342.056C332.185 345.274 337.53 347.892 337.748 347.946 337.966 347.946 338.13 346.31 338.021 344.292ZM277.048 345.274C277.048 343.092 277.048 343.092 273.94 342.22 272.194 341.675 269.849 341.129 268.759 341.02 266.741 340.747 266.686 340.747 266.686 342.384 266.686 344.347 266.686 344.347 271.485 346.037 276.666 347.892 277.048 347.837 277.048 345.274ZM278.139 333.439C278.139 331.803 276.012 330.44 271.867 329.404 269.467 328.804 267.341 328.313 267.122 328.313 266.85 328.313 266.686 329.295 266.686 330.494 266.686 331.694 266.85 332.676 267.122 332.676 267.341 332.73 269.74 333.276 272.413 333.985 277.321 335.294 278.084 335.185 278.139 333.439ZM225.402 315.115C225.892 300.826 225.892 265.214 225.402 255.615 225.02 247.107 225.292 247.107 220.82 255.506L217.93 260.96 217.875 287.519C217.875 302.081 217.712 314.188 217.548 314.351 217.385 314.515 216.73 314.297 216.076 313.806L214.876 312.988 214.876 287.083 214.876 261.232 213.403 261.56C212.531 261.778 211.004 262.214 209.968 262.596L208.059 263.25 207.786 287.574C207.622 300.935 207.35 312.006 207.132 312.225 206.968 312.443 206.423 312.006 205.932 311.297 205.223 310.207 205.059 306.444 204.732 287.737 204.405 269.14 204.187 265.432 203.532 265.214 203.096 265.05 201.623 265.268 200.26 265.704L197.697 266.468 197.37 271.594C196.879 278.466 196.879 310.425 197.315 313.806 197.697 316.533 197.697 316.533 200.969 317.842 205.168 319.587 223.711 326.077 224.474 326.077 224.856 326.131 225.183 322.532 225.402 315.115ZM278.139 321.55C278.139 320.514 277.866 319.478 277.539 319.26 276.939 318.878 267.831 316.315 267.122 316.315 266.413 316.315 266.632 319.478 267.341 319.969 268.377 320.623 276.121 323.296 277.212 323.35 277.921 323.405 278.139 322.968 278.139 321.55ZM278.357 310.425C278.521 310.152 278.466 309.225 278.193 308.407 277.866 306.989 277.375 306.716 273.994 305.844 271.922 305.298 269.413 304.862 268.431 304.862 266.795 304.862 266.632 304.971 266.795 306.389 266.959 307.698 267.395 308.025 271.322 309.334 275.903 310.861 277.866 311.188 278.357 310.425ZM310.261 266.632C310.261 250.87 310.152 223.166 309.934 205.114L309.607 172.283 308.189 172.446C306.825 172.61 306.771 172.773 306.444 176.973 306.225 179.372 305.953 207.95 305.735 240.508L305.407 299.681 307.48 301.208 309.498 302.79 309.825 299.027C310.043 297.009 310.207 282.393 310.261 266.632ZM278.03 296.845C278.139 296.082 277.757 295.373 276.939 294.882 275.303 293.846 267.995 292.1 267.286 292.591 266.959 292.755 266.686 293.627 266.686 294.5 266.686 295.918 266.959 296.136 269.849 296.954 271.54 297.445 273.231 297.936 273.503 298.045 273.83 298.154 274.921 298.208 275.957 298.154 277.484 298.045 277.921 297.772 278.03 296.845ZM403.465 277.539C404.501 277.157 404.665 276.666 404.665 274.049 404.665 271.104 404.61 270.995 403.465 271.376 400.193 272.358 399.211 273.231 399.211 275.085 399.211 278.793 399.538 279.011 403.465 277.539ZM204.841 254.852C205.059 254.143 205.005 253.052 204.732 252.506 204.241 251.525 204.132 251.525 201.242 252.67 198.351 253.815 198.242 253.924 198.079 256.16L197.915 258.451 201.187 257.36C203.805 256.433 204.568 255.942 204.841 254.852ZM218.966 249.725C219.675 247.544 218.912 247.435 213.512 249.071 210.24 250.107 208.877 251.198 208.877 252.834L208.877 254.088 213.785 252.452C217.221 251.252 218.748 250.489 218.966 249.725ZM265.268 244.271C265.432 242.417 265.595 226.438 265.595 208.822L265.595 176.7 270.231 176.7C275.085 176.7 289.537 175.009 294.555 173.864L297.5 173.21 293.955 172.828C288.937 172.337 223.329 172.337 220.057 172.882 218.584 173.101 217.548 173.319 217.766 173.373 228.292 175.064 239.363 176.264 248.362 176.7 254.633 176.973 259.814 177.3 259.869 177.354 260.251 177.791 259.378 242.144 258.996 242.144 257.36 242.144 256.815 237.672 254.961 207.513 254.197 194.915 253.434 184.281 253.325 183.953 253.215 183.572 252.506 183.244 251.743 183.244 250.598 183.244 250.434 183.517 250.107 186.135 249.943 187.662 249.616 201.242 249.452 216.294 249.18 236.8 249.234 243.726 249.725 243.999 250.543 244.544 262.269 247.489 263.741 247.544 264.777 247.598 264.941 247.216 265.268 244.271ZM205.386 241.763C205.605 241.054 205.55 239.963 205.277 239.418 204.787 238.49 204.677 238.49 201.787 239.363L198.787 240.29 198.624 242.799 198.46 245.362 201.787 244.271C204.35 243.344 205.114 242.853 205.386 241.763ZM435.369 243.508 439.569 242.472 439.569 236.309C439.569 232.928 439.405 230.146 439.187 230.146 438.914 230.201 436.678 230.637 434.115 231.128L429.479 232.11 429.316 237.781C429.152 243.835 429.37 245.144 430.461 244.708 430.788 244.599 433.024 244.053 435.369 243.508ZM216.567 239.636C219.621 238.763 221.42 237.291 221.42 235.545 221.42 233.964 220.548 233.855 217.057 234.836 213.403 235.873 212.967 236.2 212.422 238.763 211.985 240.836 212.258 240.89 216.567 239.636ZM203.696 231.292C204.95 230.583 205.332 229.983 205.332 228.728 205.332 227.256 205.223 227.147 203.314 227.201 200.478 227.31 198.515 228.674 198.515 230.637 198.515 231.455 198.678 232.328 198.897 232.546 199.442 233.037 201.678 232.491 203.696 231.292ZM220.984 226.111C221.475 225.402 221.584 222.293 221.148 221.857 220.984 221.693 219.13 222.075 217.057 222.675L213.24 223.82 213.24 226.383 213.24 228.946 216.948 227.801C218.966 227.201 220.766 226.438 220.984 226.111ZM203.205 219.948C205.768 219.13 206.095 218.912 206.423 217.166 206.914 214.44 206.205 214.058 202.769 215.149 199.006 216.403 198.515 216.839 198.515 219.021 198.515 221.202 199.006 221.311 203.205 219.948ZM434.987 219.73C436.733 219.402 438.532 218.748 438.914 218.257 439.35 217.712 439.569 215.421 439.569 211.767 439.569 205.332 440.114 205.768 433.297 206.75L429.206 207.35 429.206 213.84C429.206 221.257 428.77 220.875 434.987 219.73ZM219.621 215.149C220.984 214.549 221.42 214.003 221.748 212.422 221.911 211.331 221.966 210.295 221.748 210.131 221.311 209.695 217.166 210.895 215.585 211.931 214.658 212.531 214.331 213.24 214.331 214.658 214.331 216.567 214.385 216.567 216.13 216.239 217.057 216.021 218.639 215.53 219.621 215.149ZM202.332 207.841C203.369 207.513 205.277 207.023 206.586 206.695 208.768 206.15 208.877 206.041 208.877 203.969 208.877 202.769 208.604 201.787 208.331 201.787 208.004 201.787 205.659 202.332 203.15 202.932L198.515 204.078 198.515 206.205C198.515 208.55 198.897 208.713 202.332 207.841ZM220.111 203.15C221.802 202.441 222.02 202.169 221.857 200.587 221.693 198.897 221.584 198.787 219.784 198.951 217.494 199.115 216.785 199.824 216.348 202.223 216.021 203.696 216.13 203.969 217.112 203.969 217.712 203.969 219.075 203.587 220.111 203.15Z" fill="#FF6969" transform="matrix(1 0 0 -1 113 684)"/><path d="M323.296 314.57C321.878 314.079 321.769 313.806 321.769 310.916L321.769 307.753 323.841 308.134C326.95 308.68 327.222 309.007 327.222 312.279 327.222 315.006 327.113 315.224 326.022 315.17 325.313 315.17 324.114 314.897 323.296 314.57Z" fill="#FF6969" transform="matrix(1 0 0 -1 113 684)"/><path d="M323.95 302.681C321.223 301.644 320.841 300.608 321.496 296.3 321.823 294.118 321.932 293.955 323.568 293.955 324.55 293.955 325.641 294.173 326.022 294.445 326.84 294.936 327.604 302.899 326.895 303.335 326.622 303.499 325.313 303.226 323.95 302.681Z" fill="#FF6969" transform="matrix(1 0 0 -1 113 684)"/><path d="M322.75 287.028C321.932 286.81 321.769 286.156 321.769 283.593 321.769 281.847 321.987 280.266 322.259 280.102 322.532 279.884 323.677 280.102 324.877 280.429 326.95 281.138 326.95 281.193 327.113 284.302L327.277 287.41 325.477 287.356C324.495 287.301 323.241 287.192 322.75 287.028Z" fill="#FF6969" transform="matrix(1 0 0 -1 113 684)"/><path d="M323.077 275.576C321.823 275.357 321.223 273.558 321.223 270.122L321.223 268.268 323.841 268.649C325.259 268.813 326.459 269.031 326.513 269.14 326.622 269.195 326.84 270.722 327.004 272.576L327.386 275.957 325.804 275.903C324.932 275.848 323.677 275.685 323.077 275.576Z" fill="#FF6969" transform="matrix(1 0 0 -1 113 684)"/><path d="M321.55 261.669C321.387 260.96 321.223 259.269 321.223 257.851L321.223 255.233 323.895 255.233C326.404 255.233 326.568 255.288 326.895 256.924 327.059 257.851 327.222 259.596 327.222 260.742L327.222 262.868 324.55 262.868C322.259 262.868 321.878 262.705 321.55 261.669Z" fill="#FF6969" transform="matrix(1 0 0 -1 113 684)"/><path d="M323.023 249.398C321.878 249.18 321.769 248.852 321.769 245.089L321.769 241.054 324.168 241.054 326.622 241.054 326.95 243.944C327.659 249.343 327.004 250.216 323.023 249.398Z" fill="#FF6969" transform="matrix(1 0 0 -1 113 684)"/><path d="M323.568 232.71 321.223 232.164 321.223 229.001 321.223 225.783 323.023 225.783C326.95 225.783 327.277 226.111 327.113 229.765 327.004 231.564 326.731 233.091 326.404 233.146 326.131 233.255 324.823 233.037 323.568 232.71Z" fill="#FF6969" transform="matrix(1 0 0 -1 113 684)"/><path d="M323.296 218.857 321.223 218.639 321.223 214.821 321.223 211.058 323.895 211.058 326.622 211.058 326.95 214.003C327.604 219.021 327.386 219.293 323.296 218.857Z" fill="#FF6969" transform="matrix(1 0 0 -1 113 684)"/><path d="M228.51 434.715C228.51 432.37 226.983 428.607 225.402 426.916 224.093 425.552 221.584 424.462 217.33 423.48 215.476 423.044 215.585 422.989 219.948 422.117 222.075 421.68 223.711 420.971 224.965 419.881 226.765 418.299 228.51 414.372 228.51 411.918 228.51 411.209 228.783 410.664 229.056 410.664 229.383 410.664 229.601 411.209 229.601 411.918 229.601 414.536 230.91 417.536 232.819 419.444 234.4 421.08 235.545 421.626 238.218 422.171 240.072 422.553 241.599 423.044 241.599 423.207 241.599 423.426 240.29 423.862 238.709 424.244 237.127 424.571 235.055 425.334 234.073 425.934 232.055 427.134 230.201 430.734 229.765 434.224 229.437 436.624 228.51 437.005 228.51 434.715Z" fill="#FF6969" transform="matrix(1 0 0 -1 113 684)"/><path d="M250.434 432.915C249.289 431.77 249.671 430.352 251.198 429.97 252.888 429.534 253.761 430.297 253.488 431.988 253.325 433.46 251.525 434.006 250.434 432.915Z" fill="#FF6969" transform="matrix(1 0 0 -1 113 684)"/><path d="M367.416 431.933C367.252 431.497 366.816 429.752 366.434 428.116 365.562 424.189 363.38 421.953 359.072 420.699L355.854 419.717 358.145 419.335C362.726 418.517 364.58 416.936 366.598 412.3L367.961 409.3 368.289 411.646C368.834 414.809 372.052 417.972 375.76 418.899 378.705 419.662 378.869 420.208 376.196 420.699 373.851 421.135 371.125 422.826 370.034 424.462 369.543 425.225 368.834 427.352 368.452 429.261 368.016 431.17 367.58 432.37 367.416 431.933Z" fill="#FF6969" transform="matrix(1 0 0 -1 113 684)"/><path d="M196.17 412.245C195.624 410.118 193.661 407.882 191.48 406.955 189.571 406.137 189.571 406.083 190.88 405.81 192.788 405.374 193.77 404.665 195.243 402.647L196.551 400.847 197.26 402.429C197.969 403.847 199.769 405.101 202.605 406.083 203.587 406.41 203.532 406.465 202.114 406.901 199.987 407.501 197.479 409.955 196.988 412.027L196.551 413.663 196.17 412.245Z" fill="#FF6969" transform="matrix(1 0 0 -1 113 684)"/><path d="M404.992 412.573C404.501 411.209 405.265 410.118 406.628 410.118 408.21 410.118 408.864 411.427 407.937 412.573 407.064 413.609 405.428 413.609 404.992 412.573Z" fill="#FF6969" transform="matrix(1 0 0 -1 113 684)"/><path d="M250.052 409.082C249.671 407.228 247.98 405.537 245.471 404.501L243.617 403.683 246.126 402.592C247.98 401.774 248.907 400.902 249.616 399.538 250.598 397.411 251.416 396.975 251.416 398.557 251.416 400.193 252.997 401.883 255.233 402.538 257.36 403.192 258.178 404.119 256.651 404.119 255.397 404.119 252.397 406.901 251.634 408.864 250.707 411.046 250.489 411.1 250.052 409.082Z" fill="#FF6969" transform="matrix(1 0 0 -1 113 684)"/><path d="M383.886 406.519C383.395 405.919 383.341 405.428 383.777 404.774 385.141 402.538 388.467 404.01 387.213 406.246 386.504 407.61 384.922 407.719 383.886 406.519Z" fill="#FF6969" transform="matrix(1 0 0 -1 113 684)"/><path d="M215.749 397.684C215.203 396.048 215.967 394.848 217.385 394.848 219.893 394.848 219.675 398.175 217.166 398.557 216.457 398.666 215.967 398.339 215.749 397.684Z" fill="#FF6969" transform="matrix(1 0 0 -1 113 684)"/><path d="M160.175 337.748C159.521 337.093 159.794 335.021 160.612 334.312 161.866 333.276 164.156 334.476 164.156 336.166 164.156 336.875 163.775 337.639 163.284 337.802 162.139 338.239 160.612 338.239 160.175 337.748Z" fill="#FF6969" transform="matrix(1 0 0 -1 113 684)"/><path d="M469.946 317.733 468.637 316.315 447.313 316.315 426.043 316.315 424.353 314.897C422.226 313.097 422.117 310.861 424.08 308.298L425.443 306.498 450.421 306.498 475.345 306.498 477.035 308.134C478.944 309.988 479.49 311.843 478.781 314.351 478.126 316.806 476.054 318.551 473.491 318.878 471.582 319.151 471.091 318.987 469.946 317.733Z" fill="#FF6969" transform="matrix(1 0 0 -1 113 684)"/><path d="M419.281 296.3C417.481 294.173 417.154 292.973 417.917 291.119 419.444 287.465 417.154 287.683 455.384 287.519L490.124 287.356 491.597 289.046C493.342 291.173 493.451 293.791 491.87 295.809L490.779 297.227 455.439 297.227C422.444 297.227 420.044 297.172 419.281 296.3Z" fill="#FF6969" transform="matrix(1 0 0 -1 113 684)"/><path d="M470.164 280.211C468.364 279.066 467.546 279.011 452.712 278.63 444.15 278.412 437.06 278.193 437.005 278.193 435.151 277.266 434.551 272.849 436.133 271.54 436.787 270.94 440.332 270.722 451.621 270.504 459.638 270.34 466.346 270.067 466.564 269.849 466.783 269.631 466.673 268.268 466.292 266.741 464.819 260.578 465.637 257.469 469.182 255.342 471.2 254.088 472.236 254.852 473.491 258.56 475.127 263.196 477.744 274.376 477.744 276.557 477.744 280.375 473.545 282.447 470.164 280.211Z" fill="#FF6969" transform="matrix(1 0 0 -1 113 684)"/><path d="M135.197 216.512C130.125 215.639 125.599 212.258 123.69 207.895 122.272 204.732 122.327 199.606 123.745 195.515 124.399 193.77 124.781 192.189 124.617 192.079 124.508 191.97 123.417 192.243 122.163 192.734 119.272 193.879 114.855 193.879 112.837 192.679 110.928 191.534 109.074 187.935 109.074 185.371 109.074 183.081 110.928 178.881 111.91 178.881 112.292 178.881 114.091 180.027 115.837 181.336 120.091 184.553 128.489 188.807 133.561 190.334 135.743 191.043 140.051 191.97 143.105 192.516 148.123 193.334 148.613 193.552 148.559 194.588 148.395 200.642 148.341 200.805 146.759 202.387 145.559 203.532 144.632 203.969 143.214 203.969L141.251 203.969 141.251 210.513 141.251 217.057 139.506 217.003C138.524 216.948 136.561 216.73 135.197 216.512Z" fill="#FF6969" transform="matrix(1 0 0 -1 113 684)"/><path d="M462.801 216.676C462.638 216.512 462.474 214.167 462.474 211.549 462.474 205.986 461.874 203.969 460.293 203.969 459.693 203.969 458.711 203.478 458.111 202.878 457.129 201.896 457.02 201.187 457.129 197.533L457.293 193.388 459.475 192.897C468.855 190.88 477.035 187.28 484.18 182.154 486.689 180.354 488.815 178.881 488.979 178.881 489.579 178.881 491.379 183.626 491.379 185.262 491.433 192.352 485.107 195.624 477.854 192.243 476.217 191.48 474.854 190.88 474.745 190.88 474.69 190.88 475.454 193.007 476.436 195.679 478.562 201.242 478.672 203.369 477.145 207.459 475.345 212.313 471.364 215.258 464.601 216.73 463.837 216.894 463.019 216.894 462.801 216.676Z" fill="#FF6969" transform="matrix(1 0 0 -1 113 684)"/><path d="M101.275 151.231C99.6937 149.431 99.5846 147.414 101.003 145.996 102.257 144.741 102.475 144.687 116.709 144.36 124.672 144.141 212.694 143.978 312.334 143.978L493.451 143.978 494.869 145.668C496.614 147.741 496.669 149.431 495.033 150.959L493.778 152.158 297.936 152.158C112.183 152.158 102.093 152.104 101.275 151.231Z" fill="#FF6969" transform="matrix(1 0 0 -1 113 684)"/><path d="M150.413 134.325C148.613 134.052 146.705 131.816 146.705 129.907 146.705 129.198 147.195 127.726 147.85 126.744L148.995 124.89 296.409 124.89 443.822 124.89 445.24 126.58C446.931 128.544 447.04 130.834 445.622 132.58 444.695 133.725 443.986 133.888 438.151 134.216 431.442 134.652 153.085 134.706 150.413 134.325Z" fill="#FF6969" transform="matrix(1 0 0 -1 113 684)"/><path d="M217.494 114.201C214.658 112.674 213.949 109.074 216.13 106.674 217.93 104.657 219.73 104.438 221.911 105.911 225.183 108.092 225.402 111.746 222.402 113.601 220.384 114.91 219.075 115.073 217.494 114.201Z" fill="#FF6969" transform="matrix(1 0 0 -1 113 684)"/><path d="M254.47 112.837C252.616 110.656 252.67 108.529 254.524 106.293L255.997 104.548 311.57 104.82 367.198 105.038 368.725 106.784C370.688 108.965 370.743 110.656 368.889 112.837L367.471 114.528 311.679 114.528 255.888 114.528 254.47 112.837Z" fill="#FF6969" transform="matrix(1 0 0 -1 113 684)"/></g></g></g></g></svg>